<svg width="24" height="26" viewBox="0 0 24 26" fill="none" xmlns="http://www.w3.org/2000/svg">
<path d="M23.7215 15.1742C23.1991 14.3617 22.677 13.5781 22.1546 12.7659C22.0388 12.5919 22.0388 12.4757 22.1546 12.3017C22.677 11.5184 23.1701 10.7349 23.6925 9.95157C24.3018 9.0232 23.9827 8.12353 22.9379 7.7465C22.0677 7.42739 21.1973 7.07932 20.3269 6.76021C20.1528 6.70202 20.0657 6.58591 20.0657 6.38291C20.0367 5.42559 19.9788 4.46799 19.9206 3.53963C19.8627 2.52411 19.0794 1.94382 18.0928 2.205C17.1645 2.43696 16.2361 2.69815 15.3364 2.95933C15.1334 3.01726 15.0176 2.95933 14.8722 2.81426C14.292 2.05966 13.6827 1.33456 13.1027 0.60919C12.4642 -0.203063 11.4776 -0.203063 10.8104 0.60919C10.2302 1.33456 9.6209 2.05993 9.06956 2.7853C8.92449 2.98829 8.77942 3.01726 8.54746 2.95933C7.64805 2.69815 6.74865 2.46619 6.11017 2.29189C4.86269 2.00174 4.10836 2.49515 4.05017 3.53963C3.99225 4.49695 3.93433 5.45455 3.9051 6.4411C3.9051 6.6441 3.81821 6.73098 3.64418 6.81814L0.945965 7.86261C0.0173337 8.23991 -0.272814 9.13931 0.27852 9.98053C0.800891 10.793 1.323 11.5763 1.84537 12.3886C1.96122 12.5629 1.96122 12.6787 1.84537 12.882C1.29665 13.693 0.764599 14.5152 0.249558 15.348C-0.243587 16.1316 0.0755225 17.0599 0.945699 17.408C1.84537 17.7561 2.77373 18.1041 3.67314 18.4525C3.87614 18.5107 3.93432 18.6265 3.93432 18.8298C3.96329 19.7581 4.0794 20.6578 4.0794 21.5859C4.0794 22.5145 4.89165 23.3557 6.02328 23.0077C6.92268 22.7175 7.82209 22.5145 8.72149 22.2531C8.89553 22.1952 9.01164 22.2244 9.12775 22.3984C9.73701 23.1528 10.3173 23.8781 10.9266 24.6324C11.5937 25.4447 12.5513 25.4447 13.1896 24.6324C13.7988 23.8779 14.3791 23.1525 14.9884 22.3984C15.1045 22.2533 15.1914 22.1952 15.3946 22.2533C16.323 22.5145 17.2514 22.7465 18.18 23.0077C19.1373 23.2689 19.9496 22.6886 19.9788 21.702C20.0367 20.7447 20.0946 19.7871 20.1239 18.8005C20.1239 18.5686 20.2397 18.4817 20.414 18.4235C21.2988 18.0977 22.1789 17.7591 23.054 17.408C23.9827 16.9438 24.2728 16.0157 23.7215 15.1742ZM16.7872 10.4155L10.9845 16.2184C10.8394 16.3632 10.6364 16.4794 10.4332 16.5083C10.3752 16.5083 10.2881 16.5375 10.2302 16.5375C9.96897 16.5375 9.67882 16.4214 9.47582 16.2182L7.09672 13.8391C6.90154 13.6423 6.79203 13.3764 6.79203 13.0992C6.79203 12.8221 6.90154 12.5561 7.09672 12.3594C7.29349 12.1642 7.55942 12.0547 7.83657 12.0547C8.11372 12.0547 8.37965 12.1642 8.57642 12.3594L10.2012 13.9841L15.2495 8.93579C15.4463 8.74061 15.7122 8.63109 15.9894 8.63109C16.2665 8.63109 16.5325 8.74061 16.7292 8.93579C17.1934 9.34205 17.1934 10.009 16.7872 10.4155Z" fill="#18377A"/>
</svg>
